<?xml version="1.0" encoding="UTF-8"?> <svg xmlns="http://www.w3.org/2000/svg" xmlns:xlink="http://www.w3.org/1999/xlink" version="1.1" id="Layer_1" x="0px" y="0px" width="193" height="60" viewBox="0 0 193 60" xml:space="preserve" style="--eq-body-width:1080;"> <path fill-rule="evenodd" clip-rule="evenodd" fill="#EE3524" d="M27.485,26.721L27.485,26.721c0.849,1.176,1.459,2.422,1.854,3.695 H16.687c-1.833,0.237-3.237,1.816-3.237,3.681c0,1.866,1.417,3.446,3.237,3.682h12.655c-1.518,5.037-6.07,9.099-12.176,9.099 c-6.211,0-11.383-4.454-12.497-10.342H4.669c-2.504-2.584-4.197-5.629-2.498-9.238c1.027-2.184,3.149,7.345,3.149-1.69 c0-4.215,0.323-3.217,2.634-6.639c4.35-6.438-0.184,6.365,3.058,3.387c3.542-3.252,0.365-7.827,1.062-9.37 c0.665-1.473,2.486-3.55,5.113-7.301v0.093c4.49,3.996-0.385,4.118,0,10.021c0.07,1.079,2.54,5.887,2.814-3.221 c0.094-3.131,4.825,0.977,3.826,6.3c-0.252,1.34-1.848,1.986,0.285,4.271c1.792,1.919,1.654-1.14,1.799-2.839 C26.33,15.405,31.861,26.721,27.485,26.721"></path> <rect x="19.026" y="32.259" fill-rule="evenodd" clip-rule="evenodd" fill="#152128" width="3.677" height="3.677"></rect> <rect x="26.524" y="32.471" fill-rule="evenodd" clip-rule="evenodd" fill="#152128" width="3.254" height="3.253"></rect> <path fill="#373435" d="M189.038,43.073v-7.951h-10.742c-0.594,0-0.96,0.084-1.101,0.254c-0.226,0.282-0.338,1.001-0.338,2.157v5.54 c0,0.959,0.085,1.601,0.253,1.925c0.169,0.324,0.564,0.486,1.186,0.486h9.22c0.564,0,0.958-0.147,1.184-0.444 C188.925,44.744,189.038,44.088,189.038,43.073 M192.253,47.599h-2.834l-0.254-1.354c-0.254,0.564-0.508,0.931-0.762,1.101 c-0.253,0.169-0.746,0.253-1.48,0.253h-8.797c-1.607,0-2.713-0.394-3.32-1.184c-0.605-0.79-0.909-2.283-0.909-4.483v-3.299 c0-2.115,0.289-3.581,0.867-4.398c0.578-0.818,1.699-1.228,3.362-1.228h9.39c0.564,0,0.958-0.147,1.184-0.437 c0.226-0.297,0.339-0.959,0.339-1.995v-0.254c0-0.782-0.027-1.269-0.085-1.466c-0.141-0.528-0.62-0.796-1.438-0.796h-9.813 c-1.438,0-2.608,0.127-3.51,0.38l0.254-2.495h13.238c1.663,0,2.799,0.359,3.405,1.079c0.605,0.719,0.908,2.213,0.908,4.49v11.44 C191.998,45.04,192.084,46.584,192.253,47.599z M171.906,50.229c0,2.114-0.296,3.567-0.889,4.371 c-0.591,0.804-1.733,1.205-3.426,1.205h-13.576l-0.254-2.495c0.817,0.253,1.988,0.38,3.511,0.38h10.192 c0.564,0,0.952-0.154,1.163-0.465c0.212-0.311,0.317-0.944,0.317-1.903V46.88c-0.31,0.479-0.803,0.719-1.48,0.719h-9.643 c-1.607,0-2.714-0.388-3.32-1.162c-0.605-0.769-0.909-2.271-0.909-4.491V30.504c0-1.833-0.112-3.348-0.339-4.561h3.3v17.129 c0,0.79,0.048,1.389,0.147,1.798c0.099,0.409,0.543,0.613,1.333,0.613h9.431c0.536,0,0.917-0.147,1.143-0.444 c0.226-0.296,0.338-0.952,0.338-1.967V30.498c0-1.826-0.112-3.341-0.338-4.554h3.299V50.229z M148.304,43.073v-7.951h-10.743 c-0.593,0-0.959,0.084-1.1,0.254c-0.226,0.282-0.339,1.001-0.339,2.157v5.54c0,0.959,0.084,1.601,0.255,1.925 c0.168,0.324,0.563,0.486,1.184,0.486h9.22c0.564,0,0.96-0.147,1.185-0.444C148.19,44.744,148.304,44.088,148.304,43.073z M151.519,47.599h-2.835l-0.253-1.354c-0.255,0.564-0.508,0.931-0.762,1.101c-0.254,0.169-0.748,0.253-1.48,0.253h-8.798 c-1.607,0-2.714-0.394-3.319-1.184c-0.606-0.79-0.909-2.283-0.909-4.483v-3.299c0-2.115,0.289-3.581,0.866-4.398 c0.579-0.818,1.699-1.228,3.362-1.228h9.39c0.564,0,0.96-0.147,1.185-0.437c0.226-0.297,0.339-0.959,0.339-1.995v-0.254 c0-0.782-0.028-1.269-0.085-1.466c-0.141-0.528-0.62-0.796-1.438-0.796h-9.813c-1.438,0-2.607,0.127-3.511,0.38l0.255-2.495h13.238 c1.663,0,2.799,0.359,3.404,1.079c0.606,0.719,0.909,2.213,0.909,4.49v11.44C151.264,45.04,151.349,46.584,151.519,47.599z M132.524,45.02l-0.253,2.579h-7.486c-1.579,0-2.665-0.366-3.257-1.099c-0.677-0.812-1.016-2.334-1.016-4.555V28.059h-2.579v-2.115 h2.579v-4.392l2.961-0.726v5.118h8.163v2.115h-8.163v15.022c0,0.979,0.085,1.628,0.254,1.938c0.17,0.311,0.578,0.465,1.227,0.465 h4.061C130.537,45.484,131.707,45.33,132.524,45.02z M116.323,47.599h-3.595c0.227-1.184,0.338-2.734,0.338-4.652V30.47 c0-1.833-0.111-3.356-0.338-4.568h3.3v17.044C116.028,44.949,116.127,46.5,116.323,47.599z M116.028,23.194h-2.962v-3.129h2.962 V23.194z M107.608,43.081V30.42c0-0.254,0-0.438,0-0.55c0-0.698-0.056-1.149-0.169-1.347c-0.197-0.31-0.648-0.465-1.354-0.465 h-9.178c-0.592,0-0.986,0.148-1.184,0.444c-0.197,0.296-0.296,0.938-0.296,1.918v12.661c0,0.789,0.049,1.381,0.148,1.79 c0.098,0.409,0.542,0.613,1.332,0.613h9.178c0.536,0,0.923-0.154,1.163-0.465S107.608,44.061,107.608,43.081z M110.527,41.945 c0,2.137-0.282,3.617-0.846,4.427c-0.564,0.818-1.664,1.227-3.3,1.227h-8.627c-0.593,0-1.093-0.119-1.502-0.359 c-0.409-0.239-0.669-0.612-0.782-1.12l-0.042,5.117c0,1.975,0.099,3.496,0.296,4.568h-3.595c0.113-0.564,0.197-1.198,0.254-1.903 c0.056-0.705,0.084-1.586,0.084-2.657v-20.74c0-1.833-0.112-3.348-0.338-4.561h2.918l0.169,1.819 c0.198-1.213,0.987-1.819,2.369-1.819h8.585c1.665,0,2.807,0.38,3.427,1.142c0.62,0.754,0.931,2.234,0.931,4.427V41.945z"></path> <path fill="#EE3524" d="M87.22,43.081V30.42c0-0.254,0-0.438,0-0.55c0-0.698-0.084-1.178-0.254-1.432 c-0.169-0.253-0.592-0.38-1.276-0.38h-9.249c-0.712,0-1.127,0.176-1.254,0.529c-0.127,0.352-0.191,0.958-0.191,1.833v12.661 c0,0.959,0.085,1.593,0.254,1.917c0.169,0.324,0.564,0.486,1.191,0.486h9.249c0.571,0,0.966-0.147,1.192-0.444 C87.107,44.744,87.22,44.088,87.22,43.081 M90.393,47.599h-2.912l-0.261-1.902c-0.141,1.269-0.895,1.902-2.27,1.902h-8.706 c-1.601,0-2.7-0.394-3.306-1.184c-0.6-0.783-0.903-2.277-0.903-4.47V31.513c0-2.08,0.289-3.532,0.867-4.343 c0.578-0.817,1.699-1.226,3.362-1.226h8.544c1.015,0,1.614,0.07,1.797,0.204c0.184,0.141,0.374,0.818,0.571,2.038l0.042-5.562 c0-1.967-0.099-3.496-0.296-4.589h3.214v24.918C90.139,45.033,90.223,46.584,90.393,47.599z M67.508,35.968v-5.541 c0-0.253,0-0.438,0-0.55c0-0.705-0.057-1.156-0.169-1.353c-0.197-0.31-0.648-0.465-1.353-0.465h-9.601 c-0.705,0-1.121,0.176-1.248,0.529c-0.126,0.352-0.19,0.966-0.19,1.84v5.541H67.508z M70.427,45.02l-0.338,2.579H56.215 c-1.607,0-2.714-0.394-3.32-1.184c-0.606-0.783-0.909-2.277-0.909-4.47V31.513c0-2.08,0.289-3.532,0.867-4.343 c0.578-0.817,1.699-1.226,3.362-1.226h9.982c1.607,0,2.714,0.38,3.32,1.135c0.606,0.761,0.909,2.234,0.909,4.428v6.575h-15.48v4.991 c0,0.959,0.085,1.601,0.254,1.925c0.169,0.324,0.564,0.486,1.185,0.486h10.531C68.467,45.484,69.637,45.33,70.427,45.02z M51.688,25.944L51.519,29.2c-0.902-0.112-1.579-0.197-2.03-0.253c-1.551-0.197-2.341-0.296-2.369-0.296h-2.453 c-0.593,0-0.987,0.134-1.185,0.402c-0.197,0.268-0.296,0.952-0.296,2.044v11.856c0,2.03,0.099,3.574,0.296,4.646h-3.595 c0.226-1.184,0.338-2.728,0.338-4.646V30.504c0-1.833-0.113-3.348-0.338-4.561h2.961l0.126,2.03 c0.282-0.761,0.522-1.254,0.719-1.479c0.31-0.367,0.804-0.55,1.48-0.55H51.688z"></path> </svg> 